<svg class="svg-icon" style="vertical-align: middle;fill: currentColor;overflow: hidden;" viewBox="0 0 1024 1024" version="1.1" xmlns="http://www.w3.org/2000/svg"><path d="M766.2 323h-59.65a8 8 0 0 0-6.44 3.25l-227 307.64-120-164.6a8 8 0 0 0-6.47-3.29h-59.4a8 8 0 0 0-6.47 12.71l153.52 210.52A48.17 48.17 0 0 0 472.94 709h0.13a48.17 48.17 0 0 0 38.63-19.51l260.94-353.74A8 8 0 0 0 766.2 323z"  /><path d="M924.78 337.61A449.35 449.35 0 1 0 960 512a446.29 446.29 0 0 0-35.22-174.39zM775 775a372 372 0 1 1 109-263 369.53 369.53 0 0 1-109 263z"  /></svg>