<?xml version="1.0" encoding="iso-8859-1"?>
<!-- Generator: Adobe Illustrator 21.1.0, SVG Export Plug-In . SVG Version: 6.00 Build 0)  -->
<svg version="1.1" id="Layer_1"
	xmlns="http://www.w3.org/2000/svg"
	xmlns:xlink="http://www.w3.org/1999/xlink" x="0px" y="0px" viewBox="0 0 48 48" width="48px" xml:space="preserve">
	<g id="Successfully">
		<g>
			<path d="M24,4C12.972,4,4,12.973,4,24.001C4,35.028,12.972,44,24,44s20-8.97,20-19.999S35.028,4,24,4z
			 M24,42.645C13.721,42.645,5.356,34.281,5.356,24S13.721,5.356,24,5.356s18.644,8.364,18.644,18.645S34.279,42.645,24,42.645z"/>
			<path d="M30.555,17.87l-9.669,9.669l-3.439-3.434c-0.264-0.264-0.694-0.265-0.959,0.001
			c-0.264,0.265-0.264,0.694,0.001,0.959l3.918,3.913c0.132,0.133,0.306,0.198,0.479,0.198c0.174,0,0.347-0.065,0.479-0.198
			L31.514,18.83c0.265-0.265,0.265-0.694,0-0.959C31.249,17.605,30.82,17.605,30.555,17.87z"/>
		</g>
	</g>
</svg>
