<svg width="16" height="15" viewBox="0 0 16 15" fill="none" xmlns="http://www.w3.org/2000/svg">
<path d="M16 5.81285C16 5.95148 15.9167 6.10271 15.75 6.26654L12.2596 9.61248L13.0865 14.3384C13.0929 14.3825 13.0962 14.4455 13.0962 14.5274C13.0962 14.8425 12.9647 15 12.7019 15C12.5801 15 12.4519 14.9622 12.3173 14.8866L8 12.656L3.68269 14.8866C3.54167 14.9622 3.41346 15 3.29808 15C3.16346 15 3.0625 14.9543 2.99519 14.8629C2.92788 14.7716 2.89423 14.6597 2.89423 14.5274C2.89423 14.4896 2.90064 14.4266 2.91346 14.3384L3.74038 9.61248L0.240385 6.26654C0.0801282 6.09641 0 5.94518 0 5.81285C0 5.57971 0.179487 5.43478 0.538462 5.37807L5.36538 4.68809L7.52885 0.387524C7.65064 0.129175 7.80769 0 8 0C8.19231 0 8.34936 0.129175 8.47115 0.387524L10.6346 4.68809L15.4615 5.37807C15.8205 5.43478 16 5.57971 16 5.81285Z" fill="#75F986"/>
</svg>
